<?xml version="1.0" encoding="utf-8"?>
<!DOCTYPE svg PUBLIC "-//W3C//DTD SVG 1.1//EN" "http://www.w3.org/Graphics/SVG/1.1/DTD/svg11.dtd">
<svg version="1.1" xmlns="http://www.w3.org/2000/svg" xmlns:xlink="http://www.w3.org/1999/xlink" x="0px" y="0px" viewBox="0 0 256 256" enable-background="new 0 0 256 256" xml:space="preserve">
<metadata> Svg Vector Icons : http://www.onlinewebfonts.com/icon </metadata>
<g><g><path fill="current" d="M92.5,122.1l17.7,17.7l-35.4,35.3l-17.7-17.7L92.5,122.1z M139.8,175.2h59v-23.6h-59V175.2z M246,57.2v141.6c0,26.1-21.1,47.2-47.2,47.2H57.2c-26,0-47.2-21.1-47.2-47.2V57.2C10,31.1,31.1,10,57.2,10h141.6C224.9,10,246,31.1,246,57.2z M222.4,69c0-19.6-15.9-35.4-35.4-35.4H69c-19.6,0-35.4,15.8-35.4,35.4v118c0,19.6,15.9,35.4,35.4,35.4h118c19.6,0,35.4-15.8,35.4-35.4V69z M57.1,86.7l35.4,35.4l0,0l17.7,17.7l17.7-17.7l-53.1-53L57.1,86.7z"/></g></g>
</svg>